<?xml version="1.0" encoding="utf-8"?>
<!-- Generator: Adobe Illustrator 24.2.0, SVG Export Plug-In . SVG Version: 6.00 Build 0)  -->
<svg version="1.1" id="Layer_1" xmlns="http://www.w3.org/2000/svg" xmlns:xlink="http://www.w3.org/1999/xlink" x="0px" y="0px"
	 viewBox="0 0 283.5 70.9" style="enable-background:new 0 0 283.5 70.9;" xml:space="preserve">
<style type="text/css">
	.st0{fill:#FFDC85;}
	.st1{fill:#66BF90;}
	.st2{fill:#F76D43;}
	.st3{fill:#3F2AD3;}
	.st4{fill:#FFFFFF;}
	.st5{fill:#17156B;}
</style>
<g>
	<path class="st0" d="M32.4,13.6c-3.5,0-6.4,2.9-6.4,6.4h6.4V13.6z"/>
	<polygon class="st0" points="68.3,24.1 68.3,49.9 75.1,49.9 75.1,35.7 75.1,24.1 	"/>
	<path class="st0" d="M127.9,35.6c0-5.2-3.5-12.1-12.3-12.1c-8.3,0-12.8,6.5-12.8,13.6s4.6,13.6,12.8,13.6c8.8,0,12.3-7,12.3-12.1
		v11.2h6.8V13.6h-6.8V35.6z M117.5,45.4c-4.7,0-8-3.5-8-8.3s3.3-8.3,8-8.3c6.1,0,9.7,4.6,10.4,6.7v3.1
		C127.1,40.7,123.7,45.4,117.5,45.4z"/>
	<polygon class="st0" points="13.7,13.6 7.3,20 19.2,20 19.2,49.9 26,49.9 26,20 26,13.6 	"/>
	<path class="st0" d="M86.5,23.5c-8.4,0-11.4,6.9-11.4,12.2c0.7-1.7,3.5-6.8,9.6-6.8c3.9,0,6.9,3,6.9,8.4v12.6h6.8V37.3
		C98.3,28.5,94,23.5,86.5,23.5z"/>
	<polygon class="st0" points="175.8,24.1 175.8,49.9 182.6,49.9 182.6,35.7 182.6,24.1 	"/>
	<rect x="197.9" y="24.1" class="st0" width="6.8" height="25.7"/>
	<rect x="210.9" y="43.9" class="st0" width="26.5" height="6"/>
	<rect x="210.9" y="24.1" class="st0" width="26.5" height="6"/>
	<path class="st0" d="M210.9,43.9l20.6-6c3.5-1,5.8-4.2,5.8-7.8l-20.6,6C213.3,37.1,210.9,40.3,210.9,43.9z"/>
	<rect x="197.9" y="12.1" class="st0" width="6.8" height="6.8"/>
	<path class="st0" d="M182.6,35.7C182.6,35.7,182.6,35.7,182.6,35.7C182.6,35.7,182.6,35.7,182.6,35.7z"/>
	<path class="st0" d="M182.6,35.7c0-0.3,0.4-5.4,11.1-5.4v-6.2C183,22.9,182.6,35.3,182.6,35.7z"/>
	<path class="st0" d="M47.3,40h14.9c0.2-0.9,0.3-1.8,0.3-2.7c0-7.7-5.5-13.5-14.3-13.5s-15.9,6-15.9,13.5s6.9,13.5,16.5,13.5
		c7.2,0,11.6-3.1,13.5-5.5l-4.9-4.3c-1.4,2-4.4,4.9-9.3,4.9c-5,0-9-3.8-9-8.5c0-0.9,0.2-1.8,0.4-2.6C39.8,37.6,40,40,47.3,40z
		 M48.3,28.8c3.4,0,7.1,2.2,7.1,5.8H39.8C41,31.2,44.4,28.8,48.3,28.8z"/>
	<path class="st0" d="M154.6,40h14.9c0.2-0.9,0.3-1.8,0.3-2.7c0-7.7-5.5-13.5-14.3-13.5s-15.9,6-15.9,13.5s6.9,13.5,16.5,13.5
		c7.2,0,11.6-3.1,13.5-5.5l-4.9-4.3c-1.4,2-4.4,4.9-9.3,4.9c-5,0-9-3.8-9-8.5c0-0.9,0.2-1.8,0.4-2.6C147,37.6,147.3,40,154.6,40z
		 M155.6,28.8c3.4,0,7.1,2.2,7.1,5.8H147C148.2,31.2,151.6,28.8,155.6,28.8z"/>
	<path class="st0" d="M257.9,45.8c-5,0-9-3.8-9-8.5c0-0.9,0.2-1.8,0.4-2.6c0,3,0.2,5.4,7.6,5.4h14.9c0.2-0.9,0.3-1.8,0.3-2.7
		c0-7.7-5.5-13.5-14.3-13.5c-8.8,0-15.9,6-15.9,13.5s6.9,13.5,16.5,13.5c7.2,0,11.6-3.1,13.5-5.5l-4.9-4.3
		C265.7,42.9,262.7,45.8,257.9,45.8z M257.9,28.8c3.4,0,7.1,2.2,7.1,5.8h-15.6C250.6,31.2,253.9,28.8,257.9,28.8z"/>
</g>
</svg>
